<?xml version="1.0" encoding="UTF-8"?>
<svg width="48px" height="21px" viewBox="0 0 48 21" version="1.1" xmlns="http://www.w3.org/2000/svg" xmlns:xlink="http://www.w3.org/1999/xlink">
    <title>ebucks-logo-vector@3x</title>
    <g id="Sponsored-Ads" stroke="none" stroke-width="1" fill="none" fill-rule="evenodd">
        <g id="0.1.0-iOS-PDP-Redesign---375---Full-Flow-Copy" transform="translate(-16.000000, -774.000000)" fill-rule="nonzero">
            <g id="375/Price/State-1" transform="translate(-8.000000, 651.000000)">
                <g id="ebucks-logo-vector" transform="translate(24.000000, 123.000000)">
                    <path d="M30.8747499,10.7276537 C31.3335326,10.5105787 31.6182943,10.0281897 31.6182943,9.45736278 L31.6182943,9.29656645 C31.6182943,8.31570887 30.9380303,7.73684211 29.7910736,7.73684211 L28.1853342,7.73684211 C28.1853342,7.73684211 28.153694,7.73684211 28.145784,7.73684211 C28.0113132,7.73684211 27.8847525,7.79312082 27.7898319,7.88959861 C27.6870013,7.99411622 27.639541,8.1307931 27.639541,8.26746998 L27.639541,8.28354961 L27.639541,13.8471024 C27.639541,13.8471024 27.639541,13.8792617 27.639541,13.8873015 C27.639541,13.8873015 27.639541,13.8873015 27.639541,13.8873015 C27.639541,13.911421 27.6474511,13.9275006 27.6632712,13.9435802 C27.6790913,13.9596599 27.6870013,13.9596599 27.7028214,13.9676997 C27.7107314,13.9676997 27.7344616,13.9757395 27.7502817,13.9757395 L29.8306238,13.9757395 C31.0171308,13.9757395 31.7764952,13.3084348 31.7764952,12.2793383 L31.7764952,12.1346216 C31.7844053,11.4512372 31.4363632,10.9206093 30.8747499,10.7276537 M28.7311274,8.70162005 L29.514222,8.70162005 C30.2182161,8.70162005 30.542528,8.94281454 30.542528,9.45736278 L30.542528,9.56992021 C30.542528,10.060349 30.202396,10.3256629 29.5933224,10.3256629 L28.7311274,10.3256629 L28.7311274,8.70162005 L28.7311274,8.70162005 Z M29.5854124,12.9788023 L28.7311274,12.9788023 L28.7311274,11.2261224 L29.7040631,11.2261224 C30.3526869,11.2261224 30.6849088,11.5155557 30.6928189,12.0863827 C30.6928189,12.7456476 30.4001472,12.9788023 29.5854124,12.9788023 M44.57495,13.9435802 C44.5512198,13.9676997 44.5274897,13.9757395 44.5037596,13.9757395 L44.5037596,13.9757395 L43.5861942,13.9757395 C43.4833636,13.9757395 43.4200832,13.9435802 43.3884431,13.8712219 L42.2414864,11.8049891 L41.8222539,12.2632586 L41.8222539,13.8631821 C41.8222539,13.8953413 41.8143439,13.9194608 41.7906137,13.9435802 C41.7747936,13.9596599 41.7510635,13.9676997 41.7273333,13.9757395 L41.7273333,13.9757395 L41.7273333,13.9757395 C41.7273333,13.9757395 40.8651383,13.9757395 40.8651383,13.9757395 C40.8334981,13.9757395 40.809768,13.9676997 40.7860378,13.9435802 C40.7623077,13.9194608 40.7543977,13.8953413 40.7543977,13.8712219 L40.7543977,8.10667365 C40.7543977,8.0825542 40.7623077,8.05039494 40.7860378,8.03431531 C40.809768,8.01019586 40.8334981,8.00215604 40.8651383,8.00215604 C40.8651383,8.00215604 41.2527306,8.00215604 41.2843708,8.00215604 C41.7115133,8.00215604 41.8222539,8.33982832 41.8222539,8.53278391 L41.8222539,11.065326 L43.2935225,9.37696462 L43.3093426,9.36088498 C43.3568029,9.31264609 43.3884431,9.28048682 43.4833636,9.28048682 L44.3692888,9.28048682 C44.3930189,9.28048682 44.4246591,9.28852664 44.4483892,9.31264609 C44.4879395,9.35284517 44.4879395,9.40912388 44.4562993,9.44932296 L44.4562993,9.44932296 L43.032491,11.0733658 L44.5986801,13.8149432 L44.5986801,13.8149432 C44.6145002,13.8631821 44.6145002,13.911421 44.57495,13.9435802 M48,12.6572096 C48,13.4853107 47.3355561,14.0641775 46.3863506,14.0641775 C45.5241555,14.0641775 44.9388121,13.6541469 44.7094208,13.0109616 C44.7015107,12.9788023 44.6698705,12.8823245 44.6698705,12.8823245 C44.6540504,12.8421254 44.6619605,12.8019263 44.6936007,12.7697671 C44.7015107,12.7617273 44.7094208,12.7617273 44.7173308,12.7536874 L45.3105843,12.5044531 C45.3422245,12.4964133 45.3659546,12.4883735 45.3896847,12.4883735 C45.4608752,12.4883735 45.5241555,12.5124929 45.5716158,12.5607318 C45.5953459,12.5848513 45.6190761,12.6170106 45.6269861,12.6572096 C45.6586263,12.7617273 45.7060866,12.8501652 45.769367,12.9305634 L45.7930971,12.9627227 C45.9354779,13.1074393 46.1411391,13.1878375 46.3863506,13.1878375 C46.7581227,13.1878375 47.0112442,12.9948819 47.0112442,12.7054485 C47.0112442,12.3677763 46.6157419,12.2230596 46.1569592,12.0461836 C45.5320656,11.8049891 44.7568811,11.5075159 44.7568811,10.5909769 C44.7568811,9.7628758 45.3975948,9.20008866 46.3626204,9.20008866 C47.137805,9.20008866 47.7231484,9.67443782 47.9208995,10.3819416 C47.9367196,10.4221407 47.9288096,10.4623398 47.8971694,10.4944991 C47.8813493,10.5105787 47.8734393,10.5105787 47.8576192,10.5186185 C47.8576192,10.5186185 47.2722757,10.6794148 47.2722757,10.6794148 C47.2485456,10.6874547 47.2327255,10.6874547 47.2089954,10.6874547 C47.137805,10.6874547 47.0745246,10.6633352 47.0270643,10.6070565 C47.0033342,10.5829371 46.9875141,10.5507778 46.979604,10.542738 C46.979604,10.542738 46.971694,10.5266583 46.9637839,10.5186185 C46.9321438,10.4301805 46.8767734,10.3417426 46.805583,10.2693842 L46.7897629,10.2533046 C46.6711122,10.1407472 46.5129113,10.0925083 46.3072501,10.0925083 C46.0936789,10.0925083 45.7298167,10.148787 45.7298167,10.5346982 C45.7298167,10.8241315 46.1015889,10.9608084 46.5287314,11.1216047 C47.1931753,11.3627992 48,11.6683122 48,12.6572096 M40.2402447,12.7858467 C40.2718848,12.818006 40.2797949,12.858205 40.2639748,12.8984041 L40.2639748,12.8984041 L40.2165145,13.0029217 C39.9317529,13.6863061 39.3226793,14.0722173 38.5000345,14.0722173 C37.3293477,14.0722173 36.6253535,13.3727533 36.6253535,12.2069799 L36.6253535,11.0572862 C36.6253535,9.77091561 37.5745591,9.20008866 38.5158546,9.20008866 C39.4255099,9.20008866 40.0504036,9.70659708 40.2560648,10.5748972 L40.2718848,10.6392158 C40.2797949,10.671375 40.2718848,10.7115741 40.2481547,10.7356936 C40.2323346,10.7517732 40.2165145,10.759813 40.2006944,10.759813 L39.5758008,10.9286491 C39.5520706,10.936689 39.5283405,10.936689 39.5125204,10.936689 C39.44133,10.936689 39.3780496,10.9125695 39.3305893,10.8562908 C39.3147693,10.8402112 39.2989492,10.8160917 39.2831291,10.8000121 L39.2593989,10.7437334 C39.2356688,10.6472556 39.2040286,10.5588176 39.1644784,10.4784194 L39.1565683,10.4543 C39.0300076,10.2211453 38.8085263,10.1085879 38.5158546,10.1085879 C37.9779714,10.1085879 37.6932098,10.4623398 37.6932098,11.1296446 L37.6932098,12.1828605 C37.6932098,12.8260458 37.9779714,13.1556782 38.5316747,13.1556782 C38.8006162,13.1556782 39.0141875,13.0672403 39.1565683,12.8903643 C39.1644784,12.8823245 39.1644784,12.8742847 39.1723884,12.8662449 L39.1882085,12.8421254 C39.1961186,12.8340856 39.2040286,12.8260458 39.2119387,12.8099661 C39.2277587,12.7938865 39.2356688,12.7697671 39.2435788,12.7536874 L39.2514889,12.7376078 C39.275219,12.6893689 39.2989492,12.64113 39.3147693,12.5848513 C39.3622295,12.4964133 39.44133,12.4401346 39.5362505,12.4320948 L39.5520706,12.4320948 C39.5916209,12.4320948 39.6311711,12.4401346 39.6707213,12.4642541 L40.2244246,12.7536874 C40.2165145,12.7617273 40.2323346,12.7778069 40.2402447,12.7858467 M36.0637403,12.1828605 C36.0637403,13.3325542 35.328106,14.0722173 34.1811493,14.0722173 C32.9788222,14.0722173 32.3301984,13.4049125 32.3064683,12.1346216 C32.3064683,12.1265818 32.3064683,9.39304425 32.3064683,9.39304425 C32.3064683,9.36088498 32.3143783,9.33676554 32.3381085,9.31264609 C32.3539286,9.29656645 32.3776587,9.28852664 32.4013889,9.28048682 L32.4013889,9.28048682 L32.4013889,9.28048682 C32.4013889,9.28048682 33.2477638,9.28048682 33.2477638,9.28048682 C33.279404,9.28048682 33.3031341,9.28852664 33.3268643,9.31264609 C33.3505944,9.33676554 33.3585044,9.36088498 33.3585044,9.38500443 L33.3585044,9.59403966 L33.3585044,12.2793383 C33.3585044,12.2873781 33.3585044,12.3436568 33.3585044,12.3436568 C33.3822346,12.7938865 33.7381867,13.1476384 34.1811493,13.1476384 C34.6320219,13.1476384 34.995884,12.7938865 35.0117041,12.335617 L35.0117041,12.2954179 L35.0117041,9.38500443 C35.0117041,9.35284517 35.0196142,9.32872572 35.0433443,9.30460627 C35.0591644,9.28852664 35.0828945,9.28048682 35.1066247,9.27244701 L35.1066247,9.27244701 L35.1066247,9.27244701 C35.1066247,9.27244701 35.9529996,9.27244701 35.9529996,9.27244701 C35.9846398,9.27244701 36.0083699,9.28048682 36.0321001,9.30460627 C36.0558302,9.32872572 36.0637403,9.35284517 36.0637403,9.37696462 L36.0637403,12.1828605 L36.0637403,12.1828605 Z M26.4530341,12.030104 C26.5795948,12.0220642 26.6982455,11.9738253 26.785256,11.8853873 C26.8801766,11.7889095 26.9276369,11.6602724 26.9355469,11.5316354 L26.9355469,11.1939631 C26.9355469,9.88347304 26.2869231,9.19204884 25.060866,9.19204884 C23.9139093,9.19204884 23.178275,9.93171194 23.178275,11.0814057 L23.178275,12.1989401 C23.178275,13.3807931 23.874359,14.0561377 25.0845961,14.0561377 C25.8914208,14.0561377 26.4925843,13.734545 26.8089862,13.123519 C26.8485364,13.0511606 26.8880866,12.9788023 26.8959967,12.9546828 C26.9197268,12.9064439 26.9039067,12.8662449 26.8801766,12.8340856 C26.8722666,12.8260458 26.8485364,12.8099661 26.8485364,12.8099661 L26.2869231,12.5205328 C26.2552829,12.5044531 26.2236428,12.4964133 26.1840925,12.4964133 C26.1129021,12.4964133 26.0496217,12.5205328 26.0021615,12.5687717 C25.9863414,12.5848513 25.9705213,12.6089707 25.9626112,12.6250504 C25.7885902,12.9627227 25.4959185,13.1395986 25.0766861,13.1395986 C24.5071627,13.1395986 24.2224011,12.8260458 24.2224011,12.2069799 L24.2224011,12.030104 L26.4530341,12.030104 L26.4530341,12.030104 Z M24.2224011,11.065326 C24.2224011,10.7758926 24.3015015,10.1085879 25.0529559,10.1085879 C25.7965003,10.1085879 25.8993309,10.6794148 25.8993309,11.0170871 L25.8993309,11.1216047 L24.214491,11.1216047 L24.2224011,11.065326 L24.2224011,11.065326 Z" id="Shape" fill="#EE7203"></path>
                    <path d="M14.7522362,8.09609495 L14.7522362,7.93529862 C14.7522362,7.12327718 14.2380832,6.75344564 13.170227,6.75344564 L11.9520798,6.75344564 L11.9520798,9.26990812 L13.2888776,9.26990812 C14.2459932,9.27794793 14.7522362,8.83575804 14.7522362,8.09609495 Z M6.92920049,8.79555896 C6.01954517,8.79555896 5.63986295,9.45482389 5.63986295,10.2668453 L5.63986295,10.4276417 L8.25017821,10.4276417 L8.25017821,10.194487 C8.25017821,9.47090352 7.92586631,8.79555896 6.92920049,8.79555896 Z M13.4470786,10.4276417 L11.9520798,10.4276417 L11.9520798,13.1450995 L13.2809676,13.1450995 C14.3962841,13.1450995 14.9658074,12.8395865 14.9658074,11.770291 C14.9499874,10.8457121 14.3883741,10.4276417 13.4470786,10.4276417 Z" id="Shape" fill="#EE7203"></path>
                    <path d="M10.3305204,0 C4.62737704,0 0,4.7032925 0,10.5 C0,16.2967075 4.62737704,21 10.3305204,21 C16.0336637,21 20.6610407,16.2967075 20.6610407,10.5 C20.6610407,4.7032925 16.0336637,0 10.3305204,0 Z M9.57906597,10.9019908 C9.57906597,10.9019908 9.57115592,10.9019908 9.57906597,10.9019908 C9.58697602,11.0869066 9.52369565,11.2718224 9.38922486,11.4084992 C9.27057417,11.5290965 9.11237324,11.593415 8.95417232,11.6014548 L5.63986295,11.6014548 L5.63986295,11.9632466 C5.63986295,12.8235069 6.01954517,13.4023737 6.96875072,13.4023737 C7.71229506,13.4023737 8.12361747,13.0325421 8.32927867,12.6144717 C8.34509876,12.5903522 8.35300881,12.5742726 8.3688289,12.558193 C8.45583941,12.469755 8.58240015,12.4536753 8.68523075,12.4938744 L9.412955,12.863706 C9.412955,12.863706 9.412955,12.863706 9.412955,12.863706 L9.412955,12.863706 L9.412955,12.863706 C9.42877509,12.8717458 9.44459518,12.8797856 9.46041528,12.8958652 C9.49996551,12.9360643 9.5157856,13.0003828 9.49205546,13.0566616 C9.49205546,13.0566616 9.49205546,13.0566616 9.49205546,13.0566616 C9.49205546,13.0566616 9.412955,13.2094181 9.39713491,13.2415773 C8.93835223,14.1098775 8.08406724,14.5520674 6.96084067,14.5520674 C5.18899032,14.5520674 4.26351491,13.5310107 4.26351491,11.9310873 L4.26351491,10.2990046 C4.26351491,8.62672282 5.35510129,7.6297856 6.92129044,7.6297856 C8.56658005,7.6297856 9.57115592,8.50612557 9.57115592,10.4517611 L9.57906597,10.9019908 L9.57906597,10.9019908 Z M16.3896158,12.0356049 C16.3896158,13.4104135 15.4166801,14.4234303 13.6369197,14.4234303 L10.6785624,14.4234303 C10.6785624,14.4234303 10.6785624,14.4234303 10.6706523,14.4234303 C10.6311021,14.4234303 10.5915519,14.4073507 10.5599117,14.3832312 C10.5282715,14.351072 10.5124514,14.3108729 10.5203615,14.2706738 C10.5203615,14.2706738 10.5203615,14.2706738 10.5203615,14.262634 L10.5203615,6.22281776 C10.5203615,6.22281776 10.5203615,6.21477795 10.5203615,6.20673813 C10.5124514,6.02986217 10.5757318,5.8449464 10.7102026,5.70826953 C10.8446734,5.57159265 11.0345145,5.50727412 11.2164455,5.51531394 C11.2243556,5.51531394 11.2322656,5.51531394 11.2401757,5.51531394 L13.5736393,5.51531394 C15.234749,5.51531394 16.1444043,6.39165391 16.1444043,7.71018377 L16.1444043,7.94333844 C16.1444043,8.84379786 15.6460714,9.57542113 14.8787969,9.8085758 C15.740992,9.97741194 16.3896158,10.7331547 16.3896158,11.8426493 L16.3896158,12.0356049 L16.3896158,12.0356049 Z" id="Shape" fill="#EE7203"></path>
                    <path d="M21.7684472,4.0601072 C22.8442135,4.0601072 23.7222286,3.17572741 23.7222286,2.07427259 C23.7222286,0.98085758 22.8442135,0.0884379786 21.7684472,0.0884379786 C20.6926809,0.0884379786 19.8146658,0.98085758 19.8146658,2.07427259 C19.8146658,3.17572741 20.6926809,4.0601072 21.7684472,4.0601072" id="Path" fill="#91BE05"></path>
                </g>
            </g>
        </g>
    </g>
</svg>
